<?xml version="1.0" encoding="utf-8"?>
<!-- Generator: Adobe Illustrator 27.5.0, SVG Export Plug-In . SVG Version: 6.00 Build 0)  -->
<svg version="1.1" xmlns="http://www.w3.org/2000/svg" xmlns:xlink="http://www.w3.org/1999/xlink" x="0px" y="0px"
	 viewBox="0 0 2500 2500" style="enable-background:new 0 0 2500 2500;" xml:space="preserve">
<g id="Background">
	<rect style="fill:#FFFFFF;" width="2500" height="2500"/>
</g>
<g id="Illustration">
	<g id="Mobile_app_development_courses_1_">
		<circle style="fill:#F2E6DC;" cx="1250" cy="1250" r="915"/>
		<g>
			<path style="fill:#EFBC73;" d="M1188.045,711.024c0,79.17-27.686,151.874-73.904,208.957
				c-60.923,75.245-145.144,59.505-249.503,59.505c-62.302,0-129.501,46.7-179.333,16.871
				c-96.963-58.042-161.876-164.107-161.876-285.333c0-183.529,148.779-332.308,332.308-332.308S1188.045,527.495,1188.045,711.024z
				"/>
			<g>
				<g>
					<path style="fill:#E2A18D;" d="M1083.128,610.508c0,0,204.151,37.824,235.641,208.969l-239.144,19.603L1083.128,610.508z"/>
					<g>
						<path style="fill:#E2A18D;" d="M726.418,861.749c-56.134,19.56-108.876,29.592-209.239,150.611
							c-63.073,76.055-120.532,94.013-146.353,64.286c-101.08-116.37,72.572-270.091,174.774-338.364
							C593.937,705.993,685.652,823.763,726.418,861.749z"/>
					</g>
					<path style="fill:#FFFFFF;" d="M1034.812,790.987l91.565-5.908c-0.985-63.998-1.692-112.548-2.677-176.545
						c-101.005-19.456-196.481-9.666-296.167,4.359c-96.244,13.542-217.383,74.387-313.539,132.664l90.001,193.751l60.06-43.689
						l21.259,100.721c49.833,29.829,108.12,46.991,170.422,46.991c104.358,0,197.464-48.12,258.386-123.365L1034.812,790.987z"/>
				</g>
				<g>
					<g>
						<g>
							<path style="fill:#D87355;" d="M622.78,628.511c107.426-0.974,227.443-13.902,338.892-66.974
								c0,0-50.847-190.258-182.45-160.133C669.497,426.522,620.146,542.949,622.78,628.511z"/>
						</g>
						<path style="fill:#D87355;" d="M734.084,437.48c0,0,43.898-34.267,60.044-60.931c16.146-26.664,56.975-53.505,89.148-24.634
							c32.172,28.871-41.866,66.377-41.866,66.377L734.084,437.48z"/>
						<path style="fill:#D87355;" d="M768.948,422.289c0,0-13.917-121.247-68.147-70.743
							C646.57,402.05,739.967,446.596,768.948,422.289z"/>
						<path style="fill:#D87355;" d="M725.28,437.118c-12.836,0-26.207-3.081-36.781-9.546
							c-19.647-12.011-23.196-32.295-9.737-55.651c8.114-14.082,17.482-20.933,27.944-20.355
							c30.376,1.677,58.576,65.343,59.762,68.053c0.135,0.308,0.105,0.663-0.076,0.944
							C759.411,431.342,742.85,437.118,725.28,437.118z M705.512,353.534c-9.189,0-17.601,6.516-25.018,19.387
							c-17.579,30.507-1.877,46.267,9.048,52.946c11.104,6.789,26.801,10.137,41.974,8.964c15.285-1.184,27.231-6.605,32.898-14.904
							c-2.733-6.044-30.025-64.829-57.819-66.362C706.232,353.544,705.872,353.534,705.512,353.534z"/>
					</g>
					<g>
						<polygon style="fill:#E2A18D;" points="770.861,659.244 773.918,557.656 841.255,569.231 863.448,646.306 						"/>
						<path style="fill:#E2A18D;" d="M885.325,656.336c0.66,11.149-29.583,22.01-67.552,24.26
							c-37.968,2.25-69.283-4.964-69.944-16.112c-0.661-11.149,29.583-22.01,67.552-24.26
							C853.349,637.974,884.664,645.188,885.325,656.336z"/>
					</g>
					<g>
						<path style="fill:#E2A18D;" d="M848.744,414.82c0,0,56.529,135.673,4.434,169.254c-31.518,20.317-82.143-1.136-99.073-14.912
							c-16.93-13.776-25.355-46.739-25.355-46.739s16.644,4.35,21.809-7.287c5.164-11.637-28.365-49.007,11.586-68.409
							C802.094,427.324,815.271,441.52,848.744,414.82z"/>
						<path style="fill:#363E44;" d="M824.279,595.103c-16.983,0-34.819-5.235-47.188-11.686c-0.489-0.255-0.679-0.859-0.424-1.349
							c0.255-0.489,0.856-0.68,1.35-0.424c15.943,8.316,41.121,14.577,61.429,9.823c0.537-0.127,1.075,0.208,1.201,0.746
							c0.126,0.538-0.208,1.076-0.746,1.202C834.911,594.581,829.637,595.103,824.279,595.103z"/>
						<path style="fill:#E2A18D;" d="M754.081,525.602c8.952,8.567,15.98,29.197,7.412,38.149
							c-8.567,8.952-29.485,2.836-38.437-5.732c-8.952-8.567-9.263-22.769-0.696-31.721
							C730.927,517.346,745.13,517.035,754.081,525.602z"/>
						<g>
							<g>
								<path style="fill:#FFFFFF;" d="M803.515,511.842c-0.153-0.257-0.079-0.552-0.233-0.809
									c-0.006-0.011-0.015-0.017-0.022-0.028c-0.931-4.094-1.903-8.416-2.07-12.61c-0.074-1.857,0.589-3.221,0.718-4.979
									c0.094-1.29,0.179-2.525,0.324-3.791c12.974,5.04,21.469,15.098,21.469,15.098S814.929,510.019,803.515,511.842z"/>
								<path style="fill:#363E44;" d="M789.778,511.916c-16.121-2.586-27.772-14.972-29.67-17.096
									c0.07-0.218,0.145-0.433,0.222-0.649c2.821-1.611,17.538-9.431,33.398-6.887c2.974,0.477,5.779,1.307,8.417,2.327
									c0.603,0.97,1.166,1.977,1.633,3.056c2.766,6.383,2.438,13.313-0.285,19.16C799.215,512.49,794.553,512.682,789.778,511.916
									z"/>
							</g>
							<g>
								<path style="fill:#FFFFFF;" d="M874.551,471.988c-2.334-4.379-3.287-8.119-2.66-12.831
									c10.836-4.74,21.202-4.826,21.202-4.826s-2.352,15.358-12.422,26.972C877.962,478.848,876.208,475.096,874.551,471.988z"/>
								<path style="fill:#363E44;" d="M871.662,459.262c6.678,5.068,10.259,13.477,8.985,22.023
									c-1.139,1.295-2.35,2.558-3.696,3.736c-13.451,11.765-32.567,11.913-32.567,11.913s2.692-18.926,16.143-30.691
									C864.003,463.202,867.857,460.949,871.662,459.262z"/>
							</g>
						</g>
						<g>
							<path style="fill:#363E44;" d="M734.023,554.277c-0.252,0-0.504-0.095-0.698-0.284c-0.581-0.567-1.118-1.189-1.597-1.849
								c-1.901-2.621-2.825-5.721-2.602-8.728c0.229-3.071,1.618-5.678,3.915-7.344c1.166-0.845,2.49-1.394,3.936-1.633
								c0.552-0.092,1.06,0.279,1.149,0.824c0.09,0.545-0.278,1.06-0.823,1.149c-1.137,0.188-2.176,0.618-3.088,1.279
								c-1.811,1.314-2.91,3.399-3.095,5.873c-0.189,2.536,0.603,5.167,2.227,7.405c0.412,0.569,0.874,1.105,1.374,1.592
								c0.396,0.386,0.403,1.019,0.018,1.414C734.542,554.176,734.282,554.277,734.023,554.277z"/>
						</g>
						<path style="fill:#363E44;" d="M846.738,520.244c-0.131,0-0.264-0.026-0.391-0.08c-0.509-0.216-0.746-0.803-0.53-1.311
							c0.889-2.092,1.048-3.902,0.474-5.381c-0.598-1.544-1.843-2.313-3.566-3.376c-1.371-0.845-2.925-1.804-4.546-3.392
							c-2.066-2.025-3.685-4.56-4.814-7.535c-0.196-0.516,0.064-1.094,0.58-1.29c0.514-0.195,1.094,0.064,1.289,0.581
							c1.025,2.702,2.486,4.996,4.344,6.816c1.461,1.431,2.914,2.327,4.196,3.118c1.9,1.172,3.542,2.184,4.382,4.355
							c0.768,1.98,0.602,4.297-0.497,6.885C847.497,520.015,847.127,520.244,846.738,520.244z"/>
						<path style="fill:#363E44;" d="M835.756,546.117c-0.229,0-0.459-0.009-0.69-0.026c-5.539-0.411-9.359-5.642-9.52-5.864
							c-0.321-0.448-0.22-1.071,0.229-1.394c0.448-0.323,1.071-0.221,1.396,0.226c0.033,0.047,3.45,4.704,8.053,5.039
							c2.489,0.184,4.937-0.945,7.272-3.346c0.384-0.396,1.018-0.405,1.414-0.02c0.396,0.385,0.404,1.018,0.02,1.414
							C841.364,544.783,838.618,546.117,835.756,546.117z"/>
					</g>
				</g>
			</g>
		</g>
		<g>
			<g>
				<g>
					<g>
						<path style="fill:#40484C;" d="M1442.845,1959.446c0,32.603-26.43,59.032-59.032,59.032H738.856
							c-32.602,0-59.032-26.429-59.032-59.032V776.261c0-32.603,26.43-59.032,59.032-59.032h644.957
							c32.603,0,59.032,26.43,59.032,59.032V1959.446z"/>
						<path style="fill:#FFFFFF;" d="M733.061,784.496c-9.649,0-17.47,7.822-17.47,17.471v1165.451h674.018
							c9.649,0,17.471-7.822,17.471-17.47V801.966c0-9.649-7.822-17.471-17.471-17.471H733.061z"/>
						<path style="fill:#D3BBA3;" d="M1137.209,753.284H985.46c-0.553,0-1-0.448-1-1s0.447-1,1-1h151.749c0.553,0,1,0.448,1,1
							S1137.762,753.284,1137.209,753.284z"/>
					</g>
				</g>
				<g>
					<g>
						<g>
							<path style="fill:#F7F1EB;" d="M1293.592,935.488c0,31.719-25.951,57.67-57.67,57.67H844.359
								c-31.719,0-57.67-25.951-57.67-57.67c0-31.718,25.951-57.67,57.67-57.67h391.563
								C1267.641,877.818,1293.592,903.77,1293.592,935.488z"/>
							<g>
								<path style="fill:#E6D0BE;" d="M1247.401,1025.266H878.088c-35.014,0-63.499-28.485-63.499-63.498
									c0-35.014,28.485-63.5,63.499-63.5h369.313c35.014,0,63.499,28.486,63.499,63.5
									C1310.9,996.781,1282.415,1025.266,1247.401,1025.266z M878.088,900.269c-33.911,0-61.499,27.589-61.499,61.5
									c0,33.91,27.588,61.498,61.499,61.498h369.313c33.911,0,61.499-27.588,61.499-61.498c0-33.911-27.588-61.5-61.499-61.5
									H878.088z"/>
								<path style="fill:#D87355;" d="M900.815,960.348c0,12.552-10.175,22.727-22.727,22.727
									c-12.552,0-22.727-10.175-22.727-22.727c0-12.552,10.175-22.727,22.727-22.727
									C890.64,937.621,900.815,947.796,900.815,960.348z"/>
								
									<ellipse transform="matrix(0.009 -1 1 0.009 -18.1224 1902.4093)" style="fill:#D87355;" cx="950.754" cy="960.348" rx="22.727" ry="22.727"/>
								<path style="fill:#D87355;" d="M1046.147,960.348c0,12.552-10.175,22.727-22.727,22.727
									c-12.552,0-22.727-10.175-22.727-22.727c0-12.552,10.175-22.727,22.727-22.727
									C1035.972,937.621,1046.147,947.796,1046.147,960.348z"/>
								
									<ellipse transform="matrix(0.0136 -0.9999 0.9999 0.0136 120.899 2043.2528)" style="fill:#D87355;" cx="1096.086" cy="960.348" rx="22.727" ry="22.727"/>
							</g>
						</g>
					</g>
					<g>
						<g>
							<path style="fill:#E6D0BE;" d="M1055.605,1394.093h-7c-0.553,0-1-0.448-1-1s0.447-1,1-1h5v-5c0-0.552,0.447-1,1-1
								s1,0.448,1,1V1394.093z"/>
							<path style="fill:#E6D0BE;" d="M1036.981,1394.093h-11.624c-0.553,0-1-0.448-1-1s0.447-1,1-1h11.624c0.553,0,1,0.448,1,1
								S1037.534,1394.093,1036.981,1394.093z M1013.733,1394.093h-11.624c-0.553,0-1-0.448-1-1s0.447-1,1-1h11.624
								c0.553,0,1,0.448,1,1S1014.286,1394.093,1013.733,1394.093z M990.484,1394.093H978.86c-0.553,0-1-0.448-1-1s0.447-1,1-1
								h11.624c0.553,0,1,0.448,1,1S991.037,1394.093,990.484,1394.093z M967.236,1394.093h-11.624c-0.553,0-1-0.448-1-1
								s0.447-1,1-1h11.624c0.553,0,1,0.448,1,1S967.789,1394.093,967.236,1394.093z M943.988,1394.093h-11.624
								c-0.553,0-1-0.448-1-1s0.447-1,1-1h11.624c0.553,0,1,0.448,1,1S944.541,1394.093,943.988,1394.093z M920.74,1394.093h-11.625
								c-0.553,0-1-0.448-1-1s0.447-1,1-1h11.625c0.553,0,1,0.448,1,1S921.293,1394.093,920.74,1394.093z M897.491,1394.093h-11.624
								c-0.553,0-1-0.448-1-1s0.447-1,1-1h11.624c0.553,0,1,0.448,1,1S898.044,1394.093,897.491,1394.093z M874.243,1394.093
								h-11.624c-0.553,0-1-0.448-1-1s0.447-1,1-1h11.624c0.553,0,1,0.448,1,1S874.796,1394.093,874.243,1394.093z
								 M850.995,1394.093h-11.624c-0.553,0-1-0.448-1-1s0.447-1,1-1h11.624c0.553,0,1,0.448,1,1S851.548,1394.093,850.995,1394.093
								z M827.747,1394.093h-11.625c-0.553,0-1-0.448-1-1s0.447-1,1-1h11.625c0.553,0,1,0.448,1,1S828.3,1394.093,827.747,1394.093z
								"/>
							<path style="fill:#E6D0BE;" d="M804.498,1394.093h-7v-7c0-0.552,0.447-1,1-1c0.553,0,1,0.448,1,1v5h5c0.553,0,1,0.448,1,1
								S805.051,1394.093,804.498,1394.093z"/>
							<path style="fill:#E6D0BE;" d="M798.498,1376.469c-0.553,0-1-0.448-1-1v-11.624c0-0.552,0.447-1,1-1c0.553,0,1,0.448,1,1
								v11.624C799.498,1376.021,799.051,1376.469,798.498,1376.469z M798.498,1353.22c-0.553,0-1-0.448-1-1v-11.624
								c0-0.552,0.447-1,1-1c0.553,0,1,0.448,1,1v11.624C799.498,1352.772,799.051,1353.22,798.498,1353.22z M798.498,1329.972
								c-0.553,0-1-0.448-1-1v-11.624c0-0.552,0.447-1,1-1c0.553,0,1,0.448,1,1v11.624
								C799.498,1329.524,799.051,1329.972,798.498,1329.972z M798.498,1306.724c-0.553,0-1-0.448-1-1V1294.1c0-0.552,0.447-1,1-1
								c0.553,0,1,0.448,1,1v11.624C799.498,1306.276,799.051,1306.724,798.498,1306.724z M798.498,1283.476c-0.553,0-1-0.448-1-1
								v-11.624c0-0.552,0.447-1,1-1c0.553,0,1,0.448,1,1v11.624C799.498,1283.028,799.051,1283.476,798.498,1283.476z
								 M798.498,1260.227c-0.553,0-1-0.448-1-1v-11.624c0-0.552,0.447-1,1-1c0.553,0,1,0.448,1,1v11.624
								C799.498,1259.779,799.051,1260.227,798.498,1260.227z M798.498,1236.979c-0.553,0-1-0.448-1-1v-11.624c0-0.552,0.447-1,1-1
								c0.553,0,1,0.448,1,1v11.624C799.498,1236.531,799.051,1236.979,798.498,1236.979z M798.498,1213.73c-0.553,0-1-0.448-1-1
								v-11.624c0-0.552,0.447-1,1-1c0.553,0,1,0.448,1,1v11.624C799.498,1213.283,799.051,1213.73,798.498,1213.73z
								 M798.498,1190.482c-0.553,0-1-0.448-1-1v-11.624c0-0.552,0.447-1,1-1c0.553,0,1,0.448,1,1v11.624
								C799.498,1190.034,799.051,1190.482,798.498,1190.482z M798.498,1167.234c-0.553,0-1-0.448-1-1v-11.624c0-0.552,0.447-1,1-1
								c0.553,0,1,0.448,1,1v11.624C799.498,1166.786,799.051,1167.234,798.498,1167.234z"/>
							<path style="fill:#E6D0BE;" d="M798.498,1143.986c-0.553,0-1-0.448-1-1v-7h7c0.553,0,1,0.448,1,1s-0.447,1-1,1h-5v5
								C799.498,1143.538,799.051,1143.986,798.498,1143.986z"/>
							<path style="fill:#E6D0BE;" d="M1036.982,1137.986h-11.625c-0.553,0-1-0.448-1-1s0.447-1,1-1h11.625c0.553,0,1,0.448,1,1
								S1037.535,1137.986,1036.982,1137.986z M1013.733,1137.986h-11.624c-0.553,0-1-0.448-1-1s0.447-1,1-1h11.624
								c0.553,0,1,0.448,1,1S1014.286,1137.986,1013.733,1137.986z M990.485,1137.986h-11.624c-0.553,0-1-0.448-1-1s0.447-1,1-1
								h11.624c0.553,0,1,0.448,1,1S991.038,1137.986,990.485,1137.986z M967.237,1137.986h-11.624c-0.553,0-1-0.448-1-1
								s0.447-1,1-1h11.624c0.553,0,1,0.448,1,1S967.79,1137.986,967.237,1137.986z M943.988,1137.986h-11.624c-0.553,0-1-0.448-1-1
								s0.447-1,1-1h11.624c0.553,0,1,0.448,1,1S944.541,1137.986,943.988,1137.986z M920.74,1137.986h-11.624c-0.553,0-1-0.448-1-1
								s0.447-1,1-1h11.624c0.553,0,1,0.448,1,1S921.293,1137.986,920.74,1137.986z M897.492,1137.986h-11.624c-0.553,0-1-0.448-1-1
								s0.447-1,1-1h11.624c0.553,0,1,0.448,1,1S898.045,1137.986,897.492,1137.986z M874.244,1137.986H862.62c-0.553,0-1-0.448-1-1
								s0.447-1,1-1h11.624c0.553,0,1,0.448,1,1S874.797,1137.986,874.244,1137.986z M850.995,1137.986h-11.624
								c-0.553,0-1-0.448-1-1s0.447-1,1-1h11.624c0.553,0,1,0.448,1,1S851.548,1137.986,850.995,1137.986z M827.747,1137.986
								h-11.624c-0.553,0-1-0.448-1-1s0.447-1,1-1h11.624c0.553,0,1,0.448,1,1S828.3,1137.986,827.747,1137.986z"/>
							<path style="fill:#E6D0BE;" d="M1054.605,1143.986c-0.553,0-1-0.448-1-1v-5h-5c-0.553,0-1-0.448-1-1s0.447-1,1-1h7v7
								C1055.605,1143.538,1055.158,1143.986,1054.605,1143.986z"/>
							<path style="fill:#E6D0BE;" d="M1054.605,1376.469c-0.553,0-1-0.448-1-1v-11.624c0-0.552,0.447-1,1-1s1,0.448,1,1v11.624
								C1055.605,1376.021,1055.158,1376.469,1054.605,1376.469z M1054.605,1353.221c-0.553,0-1-0.448-1-1v-11.625
								c0-0.552,0.447-1,1-1s1,0.448,1,1v11.625C1055.605,1352.773,1055.158,1353.221,1054.605,1353.221z M1054.605,1329.972
								c-0.553,0-1-0.448-1-1v-11.624c0-0.552,0.447-1,1-1s1,0.448,1,1v11.624
								C1055.605,1329.524,1055.158,1329.972,1054.605,1329.972z M1054.605,1306.724c-0.553,0-1-0.448-1-1V1294.1
								c0-0.552,0.447-1,1-1s1,0.448,1,1v11.625C1055.605,1306.276,1055.158,1306.724,1054.605,1306.724z M1054.605,1283.476
								c-0.553,0-1-0.448-1-1v-11.624c0-0.552,0.447-1,1-1s1,0.448,1,1v11.624
								C1055.605,1283.028,1055.158,1283.476,1054.605,1283.476z M1054.605,1260.227c-0.553,0-1-0.448-1-1v-11.624
								c0-0.552,0.447-1,1-1s1,0.448,1,1v11.624C1055.605,1259.779,1055.158,1260.227,1054.605,1260.227z M1054.605,1236.979
								c-0.553,0-1-0.448-1-1v-11.624c0-0.552,0.447-1,1-1s1,0.448,1,1v11.624
								C1055.605,1236.531,1055.158,1236.979,1054.605,1236.979z M1054.605,1213.731c-0.553,0-1-0.448-1-1v-11.624
								c0-0.552,0.447-1,1-1s1,0.448,1,1v11.624C1055.605,1213.283,1055.158,1213.731,1054.605,1213.731z M1054.605,1190.482
								c-0.553,0-1-0.448-1-1v-11.624c0-0.552,0.447-1,1-1s1,0.448,1,1v11.624
								C1055.605,1190.035,1055.158,1190.482,1054.605,1190.482z M1054.605,1167.234c-0.553,0-1-0.448-1-1v-11.624
								c0-0.552,0.447-1,1-1s1,0.448,1,1v11.624C1055.605,1166.786,1055.158,1167.234,1054.605,1167.234z"/>
						</g>
						<g>
							
								<rect x="771.388" y="1110.953" transform="matrix(0.9999 -0.0114 0.0114 0.9999 -14.0638 10.2975)" style="fill:#8B865C;" width="249.807" height="255.822"/>
							<path style="fill:#FFFFFF;" d="M806.214,1307.631c60.184-0.686,120.367-1.372,180.551-2.058
								c-27.674-88.547-44.791-110.834-55.825-109.488c-15.94,1.945-20.115,53.329-42.033,55.045
								c-13.176,1.031-18.656-16.99-31.947-17.494C845.529,1233.203,828.646,1245.74,806.214,1307.631z"/>
							
								<ellipse transform="matrix(0.6861 -0.7275 0.7275 0.6861 -588.6906 998.4921)" style="fill:#FFFFFF;" cx="862.814" cy="1181.484" rx="23.313" ry="23.313"/>
						</g>
					</g>
					<g>
						<g>
							<path style="fill:#E6D0BE;" d="M1319.485,1801.48h-7c-0.553,0-1-0.448-1-1s0.447-1,1-1h5v-5c0-0.552,0.447-1,1-1s1,0.448,1,1
								V1801.48z"/>
							<path style="fill:#E6D0BE;" d="M1300.262,1801.48h-12.223c-0.553,0-1-0.448-1-1s0.447-1,1-1h12.223c0.553,0,1,0.448,1,1
								S1300.814,1801.48,1300.262,1801.48z M1275.815,1801.48h-12.223c-0.553,0-1-0.448-1-1s0.447-1,1-1h12.223
								c0.553,0,1,0.448,1,1S1276.368,1801.48,1275.815,1801.48z M1251.37,1801.48h-12.223c-0.553,0-1-0.448-1-1s0.447-1,1-1h12.223
								c0.553,0,1,0.448,1,1S1251.923,1801.48,1251.37,1801.48z M1226.924,1801.48h-12.223c-0.553,0-1-0.448-1-1s0.447-1,1-1h12.223
								c0.553,0,1,0.448,1,1S1227.477,1801.48,1226.924,1801.48z M1202.479,1801.48h-12.223c-0.553,0-1-0.448-1-1s0.447-1,1-1
								h12.223c0.553,0,1,0.448,1,1S1203.031,1801.48,1202.479,1801.48z M1178.032,1801.48h-12.223c-0.553,0-1-0.448-1-1
								s0.447-1,1-1h12.223c0.553,0,1,0.448,1,1S1178.585,1801.48,1178.032,1801.48z M1153.587,1801.48h-12.224
								c-0.553,0-1-0.448-1-1s0.447-1,1-1h12.224c0.553,0,1,0.448,1,1S1154.14,1801.48,1153.587,1801.48z M1129.141,1801.48h-12.223
								c-0.553,0-1-0.448-1-1s0.447-1,1-1h12.223c0.553,0,1,0.448,1,1S1129.693,1801.48,1129.141,1801.48z M1104.695,1801.48
								h-12.224c-0.553,0-1-0.448-1-1s0.447-1,1-1h12.224c0.553,0,1,0.448,1,1S1105.248,1801.48,1104.695,1801.48z
								 M1080.249,1801.48h-12.223c-0.553,0-1-0.448-1-1s0.447-1,1-1h12.223c0.553,0,1,0.448,1,1S1080.802,1801.48,1080.249,1801.48
								z M1055.804,1801.48h-12.224c-0.553,0-1-0.448-1-1s0.447-1,1-1h12.224c0.553,0,1,0.448,1,1
								S1056.356,1801.48,1055.804,1801.48z M1031.357,1801.48h-12.223c-0.553,0-1-0.448-1-1s0.447-1,1-1h12.223
								c0.553,0,1,0.448,1,1S1031.91,1801.48,1031.357,1801.48z"/>
							<path style="fill:#E6D0BE;" d="M1006.912,1801.48h-7v-7c0-0.552,0.447-1,1-1c0.553,0,1,0.448,1,1v5h5c0.553,0,1,0.448,1,1
								S1007.465,1801.48,1006.912,1801.48z"/>
							<path style="fill:#E6D0BE;" d="M1000.912,1783.257c-0.553,0-1-0.448-1-1v-12.223c0-0.552,0.447-1,1-1c0.553,0,1,0.448,1,1
								v12.223C1001.912,1782.809,1001.465,1783.257,1000.912,1783.257z M1000.912,1758.811c-0.553,0-1-0.448-1-1v-12.223
								c0-0.552,0.447-1,1-1c0.553,0,1,0.448,1,1v12.223C1001.912,1758.363,1001.465,1758.811,1000.912,1758.811z
								 M1000.912,1734.365c-0.553,0-1-0.448-1-1v-12.223c0-0.552,0.447-1,1-1c0.553,0,1,0.448,1,1v12.223
								C1001.912,1733.917,1001.465,1734.365,1000.912,1734.365z M1000.912,1709.919c-0.553,0-1-0.448-1-1v-12.223
								c0-0.552,0.447-1,1-1c0.553,0,1,0.448,1,1v12.223C1001.912,1709.472,1001.465,1709.919,1000.912,1709.919z
								 M1000.912,1685.474c-0.553,0-1-0.448-1-1v-12.223c0-0.552,0.447-1,1-1c0.553,0,1,0.448,1,1v12.223
								C1001.912,1685.026,1001.465,1685.474,1000.912,1685.474z M1000.912,1661.028c-0.553,0-1-0.448-1-1v-12.223
								c0-0.552,0.447-1,1-1c0.553,0,1,0.448,1,1v12.223C1001.912,1660.58,1001.465,1661.028,1000.912,1661.028z M1000.912,1636.582
								c-0.553,0-1-0.448-1-1v-12.223c0-0.552,0.447-1,1-1c0.553,0,1,0.448,1,1v12.223
								C1001.912,1636.134,1001.465,1636.582,1000.912,1636.582z M1000.912,1612.136c-0.553,0-1-0.448-1-1v-12.223
								c0-0.552,0.447-1,1-1c0.553,0,1,0.448,1,1v12.223C1001.912,1611.688,1001.465,1612.136,1000.912,1612.136z M1000.912,1587.69
								c-0.553,0-1-0.448-1-1v-12.223c0-0.552,0.447-1,1-1c0.553,0,1,0.448,1,1v12.223
								C1001.912,1587.242,1001.465,1587.69,1000.912,1587.69z M1000.912,1563.244c-0.553,0-1-0.448-1-1v-12.223
								c0-0.552,0.447-1,1-1c0.553,0,1,0.448,1,1v12.223C1001.912,1562.796,1001.465,1563.244,1000.912,1563.244z
								 M1000.912,1538.798c-0.553,0-1-0.448-1-1v-12.223c0-0.552,0.447-1,1-1c0.553,0,1,0.448,1,1v12.223
								C1001.912,1538.351,1001.465,1538.798,1000.912,1538.798z M1000.912,1514.353c-0.553,0-1-0.448-1-1v-12.223
								c0-0.552,0.447-1,1-1c0.553,0,1,0.448,1,1v12.223C1001.912,1513.905,1001.465,1514.353,1000.912,1514.353z"/>
							<path style="fill:#E6D0BE;" d="M1000.912,1489.907c-0.553,0-1-0.448-1-1v-7h7c0.553,0,1,0.448,1,1s-0.447,1-1,1h-5v5
								C1001.912,1489.459,1001.465,1489.907,1000.912,1489.907z"/>
							<path style="fill:#E6D0BE;" d="M1300.262,1483.907h-12.223c-0.553,0-1-0.448-1-1s0.447-1,1-1h12.223c0.553,0,1,0.448,1,1
								S1300.814,1483.907,1300.262,1483.907z M1275.816,1483.907h-12.224c-0.553,0-1-0.448-1-1s0.447-1,1-1h12.224
								c0.553,0,1,0.448,1,1S1276.369,1483.907,1275.816,1483.907z M1251.37,1483.907h-12.223c-0.553,0-1-0.448-1-1s0.447-1,1-1
								h12.223c0.553,0,1,0.448,1,1S1251.923,1483.907,1251.37,1483.907z M1226.925,1483.907h-12.224c-0.553,0-1-0.448-1-1
								s0.447-1,1-1h12.224c0.553,0,1,0.448,1,1S1227.478,1483.907,1226.925,1483.907z M1202.479,1483.907h-12.223
								c-0.553,0-1-0.448-1-1s0.447-1,1-1h12.223c0.553,0,1,0.448,1,1S1203.031,1483.907,1202.479,1483.907z M1178.033,1483.907
								h-12.224c-0.553,0-1-0.448-1-1s0.447-1,1-1h12.224c0.553,0,1,0.448,1,1S1178.586,1483.907,1178.033,1483.907z
								 M1153.587,1483.907h-12.223c-0.553,0-1-0.448-1-1s0.447-1,1-1h12.223c0.553,0,1,0.448,1,1
								S1154.14,1483.907,1153.587,1483.907z M1129.141,1483.907h-12.223c-0.553,0-1-0.448-1-1s0.447-1,1-1h12.223
								c0.553,0,1,0.448,1,1S1129.693,1483.907,1129.141,1483.907z M1104.695,1483.907h-12.223c-0.553,0-1-0.448-1-1s0.447-1,1-1
								h12.223c0.553,0,1,0.448,1,1S1105.248,1483.907,1104.695,1483.907z M1080.249,1483.907h-12.223c-0.553,0-1-0.448-1-1
								s0.447-1,1-1h12.223c0.553,0,1,0.448,1,1S1080.802,1483.907,1080.249,1483.907z M1055.804,1483.907h-12.223
								c-0.553,0-1-0.448-1-1s0.447-1,1-1h12.223c0.553,0,1,0.448,1,1S1056.356,1483.907,1055.804,1483.907z M1031.357,1483.907
								h-12.223c-0.553,0-1-0.448-1-1s0.447-1,1-1h12.223c0.553,0,1,0.448,1,1S1031.91,1483.907,1031.357,1483.907z"/>
							<path style="fill:#E6D0BE;" d="M1318.485,1489.907c-0.553,0-1-0.448-1-1v-5h-5c-0.553,0-1-0.448-1-1s0.447-1,1-1h7v7
								C1319.485,1489.459,1319.038,1489.907,1318.485,1489.907z"/>
							<path style="fill:#E6D0BE;" d="M1318.485,1783.257c-0.553,0-1-0.448-1-1v-12.223c0-0.552,0.447-1,1-1s1,0.448,1,1v12.223
								C1319.485,1782.81,1319.038,1783.257,1318.485,1783.257z M1318.485,1758.812c-0.553,0-1-0.448-1-1v-12.223
								c0-0.552,0.447-1,1-1s1,0.448,1,1v12.223C1319.485,1758.364,1319.038,1758.812,1318.485,1758.812z M1318.485,1734.365
								c-0.553,0-1-0.448-1-1v-12.223c0-0.552,0.447-1,1-1s1,0.448,1,1v12.223
								C1319.485,1733.917,1319.038,1734.365,1318.485,1734.365z M1318.485,1709.919c-0.553,0-1-0.448-1-1v-12.223
								c0-0.552,0.447-1,1-1s1,0.448,1,1v12.223C1319.485,1709.472,1319.038,1709.919,1318.485,1709.919z M1318.485,1685.474
								c-0.553,0-1-0.448-1-1v-12.223c0-0.552,0.447-1,1-1s1,0.448,1,1v12.223
								C1319.485,1685.026,1319.038,1685.474,1318.485,1685.474z M1318.485,1661.028c-0.553,0-1-0.448-1-1v-12.223
								c0-0.552,0.447-1,1-1s1,0.448,1,1v12.223C1319.485,1660.58,1319.038,1661.028,1318.485,1661.028z M1318.485,1636.582
								c-0.553,0-1-0.448-1-1v-12.223c0-0.552,0.447-1,1-1s1,0.448,1,1v12.223
								C1319.485,1636.134,1319.038,1636.582,1318.485,1636.582z M1318.485,1612.136c-0.553,0-1-0.448-1-1v-12.223
								c0-0.552,0.447-1,1-1s1,0.448,1,1v12.223C1319.485,1611.688,1319.038,1612.136,1318.485,1612.136z M1318.485,1587.69
								c-0.553,0-1-0.448-1-1v-12.223c0-0.552,0.447-1,1-1s1,0.448,1,1v12.223C1319.485,1587.243,1319.038,1587.69,1318.485,1587.69
								z M1318.485,1563.245c-0.553,0-1-0.448-1-1v-12.223c0-0.552,0.447-1,1-1s1,0.448,1,1v12.223
								C1319.485,1562.797,1319.038,1563.245,1318.485,1563.245z M1318.485,1538.799c-0.553,0-1-0.448-1-1v-12.223
								c0-0.552,0.447-1,1-1s1,0.448,1,1v12.223C1319.485,1538.351,1319.038,1538.799,1318.485,1538.799z M1318.485,1514.353
								c-0.553,0-1-0.448-1-1v-12.223c0-0.552,0.447-1,1-1s1,0.448,1,1v12.223
								C1319.485,1513.905,1319.038,1514.353,1318.485,1514.353z"/>
						</g>
						<g>
							<rect x="940.234" y="1446.677" style="fill:#F2E6DC;" width="341.15" height="320.689"/>
						</g>
						<rect x="965.374" y="1714.849" style="fill:#D3BBA3;" width="290.87" height="18.514"/>
						<g>
							<polygon style="fill:#D3BBA3;" points="1172.513,1537.079 1066.171,1580.215 1064.96,1541.33 1171.302,1498.194 							"/>
							<path style="fill:#D3BBA3;" d="M1071.34,1650.209c-0.807,0-1.473-0.641-1.498-1.453l-2.88-92.459
								c-0.026-0.828,0.624-1.521,1.452-1.546c0.838-0.051,1.52,0.624,1.546,1.452l2.88,92.459c0.026,0.828-0.624,1.521-1.452,1.546
								C1071.372,1650.209,1071.355,1650.209,1071.34,1650.209z"/>
							<path style="fill:#D3BBA3;" d="M1171.812,1611.238c-0.807,0-1.473-0.641-1.498-1.453l-2.88-92.459
								c-0.026-0.828,0.624-1.521,1.452-1.546c0.837-0.062,1.52,0.625,1.546,1.452l2.88,92.459c0.026,0.828-0.624,1.521-1.452,1.546
								C1171.844,1611.238,1171.827,1611.238,1171.812,1611.238z"/>
							
								<ellipse transform="matrix(0.8975 -0.441 0.441 0.8975 -619.2756 634.4082)" style="fill:#D3BBA3;" cx="1055.285" cy="1649.569" rx="19.02" ry="19.02"/>
							
								<ellipse transform="matrix(0.0826 -0.9966 0.9966 0.0826 -542.8842 2627.5854)" style="fill:#D3BBA3;" cx="1155.777" cy="1608.67" rx="19.02" ry="19.02"/>
						</g>
					</g>
					<g>
						<rect x="1136.758" y="1136.986" style="fill:#F2E6DC;" width="181.728" height="22.55"/>
						<rect x="1136.758" y="1182.67" style="fill:#F2E6DC;" width="181.728" height="22.551"/>
						<rect x="1136.758" y="1225.676" style="fill:#F2E6DC;" width="181.728" height="22.551"/>
						<rect x="1136.758" y="1274.14" style="fill:#F2E6DC;" width="181.728" height="22.551"/>
					</g>
				</g>
			</g>
			<g>
				
					<rect x="1292.707" y="697.767" transform="matrix(-0.7617 -0.6479 0.6479 -0.7617 1983.2251 2222.2217)" style="fill:#2D353A;" width="215.032" height="97.357"/>
				<polygon style="fill:#40484C;" points="1396.104,751.827 1655.649,856.009 1496.776,625.841 1237.231,521.66 				"/>
				<g>
					<path style="fill:#EFBC73;" d="M1606.619,1031.222c-0.553,0-1-0.448-1-1l0.052-215.213l-32.691-43.946
						c-0.329-0.443-0.237-1.07,0.206-1.399c0.442-0.331,1.069-0.237,1.399,0.205l33.086,44.477v0.331l-0.052,215.544
						C1607.619,1030.774,1607.171,1031.222,1606.619,1031.222z"/>
					<polygon style="fill:#EFBC73;" points="1606.478,991.92 1631.169,1087.058 1581.741,1087.046 					"/>
				</g>
			</g>
		</g>
		<g>
			<path style="fill:#E2A18D;" d="M478.375,928.583c0,0,103.355,117.383,153.752,183.47
				c52.927,69.406,120.964,179.585,105.429,188.904c-8.849,5.308-21.234-7.8-52.011-45.036c-0.327,3.439-3.181,13.192-12.195,16.769
				c-13.341,5.294-21.29-3.893-22.326-4.434c-0.017,1.175-0.543,13.828-8.873,18.884c-9.383,5.695-18.741,3.939-25.757-1.06
				c-0.131,2.914-1.706,13.616-9.856,18.239c-8.383,4.755-20.586,3.635-26.565-4.451c-10.969-14.834-42.721-59.541-60.825-79.415
				c-23.669-25.983-95.683-88.509-152.075-148.12c-33.002-34.885-19.228-92.06,25.886-108.517
				C439.049,947.003,478.375,928.583,478.375,928.583z"/>
			<g>
				<path style="fill:#363E44;" d="M576.005,1278.726c-0.351,0-0.69-0.184-0.874-0.512c-0.27-0.482-0.098-1.091,0.385-1.361
					l13.606-7.617c0.482-0.27,1.092-0.098,1.361,0.384c0.27,0.481,0.098,1.091-0.385,1.361l-13.606,7.617
					C576.338,1278.685,576.17,1278.726,576.005,1278.726z"/>
				<path style="fill:#363E44;" d="M608.486,1259.752c-0.361,0-0.711-0.196-0.889-0.54c-0.254-0.49-0.064-1.094,0.427-1.348
					l15.648-8.122c0.491-0.254,1.095-0.063,1.349,0.427c0.254,0.49,0.064,1.094-0.427,1.348l-15.648,8.122
					C608.799,1259.716,608.642,1259.752,608.486,1259.752z"/>
				<path style="fill:#363E44;" d="M643.97,1242.165c-0.35,0-0.689-0.184-0.873-0.511c-0.271-0.482-0.099-1.091,0.383-1.361
					c2.536-1.423,4.836-2.69,7.135-3.957c2.3-1.267,4.6-2.534,7.138-3.958c0.479-0.27,1.091-0.099,1.361,0.383
					c0.271,0.481,0.099,1.091-0.383,1.361c-2.542,1.427-4.847,2.696-7.151,3.966c-2.294,1.264-4.589,2.529-7.121,3.949
					C644.304,1242.124,644.136,1242.165,643.97,1242.165z"/>
				<path style="fill:#363E44;" d="M671.735,1224.901c-0.324,0-0.643-0.157-0.835-0.448c-0.305-0.461-0.179-1.081,0.282-1.386
					l12.914-8.539c0.46-0.304,1.081-0.178,1.386,0.283c0.305,0.461,0.179,1.081-0.282,1.386l-12.914,8.539
					C672.116,1224.847,671.925,1224.901,671.735,1224.901z"/>
			</g>
		</g>
		<g>
			
				<ellipse transform="matrix(0.7071 -0.7071 0.7071 0.7071 169.199 1513.6379)" style="fill:#FFFFFF;" cx="1911.722" cy="552.578" rx="205.157" ry="205.157"/>
			<g>
				
					<ellipse transform="matrix(0.7071 -0.7071 0.7071 0.7071 164.7914 1502.9969)" style="fill:#F2E6DC;" cx="1896.674" cy="552.578" rx="161.826" ry="161.826"/>
				<g>
					<path style="fill:#D3BBA3;" d="M1920.128,715.404c-0.317,0-0.634-0.001-0.952-0.003
						c-89.781-0.517-162.402-73.98-161.886-163.761c0.516-89.463,73.461-161.889,162.809-161.889c0.317,0,0.634,0.001,0.952,0.003
						c89.78,0.517,162.402,73.98,161.887,163.761C2082.421,642.978,2009.475,715.404,1920.128,715.404z M1920.099,391.751
						c-88.257,0-160.3,71.531-160.809,159.901c-0.511,88.678,71.219,161.239,159.897,161.75c0.309,0.002,0.632,0.003,0.94,0.003
						c88.257,0,160.3-71.531,160.81-159.901l1,0.006l-1-0.006c0.51-88.678-71.221-161.239-159.898-161.75
						C1920.73,391.752,1920.407,391.751,1920.099,391.751z"/>
					<path style="fill:#D3BBA3;" d="M1920.396,475.079c-44.983,0-89.201-7.575-127.873-21.905c-0.518-0.192-0.782-0.767-0.59-1.285
						c0.192-0.518,0.765-0.782,1.285-0.59c38.451,14.249,82.429,21.78,127.178,21.78c44.407,0,88.091-7.423,126.33-21.467
						c0.518-0.19,1.093,0.076,1.283,0.594c0.19,0.518-0.075,1.093-0.594,1.283C2008.959,467.613,1965.036,475.079,1920.396,475.079z
						"/>
					<path style="fill:#D3BBA3;" d="M1791.39,651.678c-0.404,0-0.785-0.247-0.936-0.648c-0.195-0.517,0.066-1.094,0.583-1.288
						c39.041-14.694,83.772-22.46,129.359-22.46c45.341,0,89.862,7.688,128.754,22.232c0.517,0.193,0.779,0.77,0.586,1.287
						c-0.193,0.517-0.766,0.78-1.287,0.586c-38.669-14.462-82.949-22.106-128.053-22.106c-45.349,0-89.837,7.722-128.654,22.332
						C1791.626,651.657,1791.507,651.678,1791.39,651.678z"/>
					<path style="fill:#D3BBA3;" d="M1920.113,715.404c-22.834,0-44.247-17.024-60.297-47.937
						c-15.941-30.705-24.721-71.507-24.721-114.889c0-43.383,8.779-84.184,24.721-114.889c16.05-30.913,37.463-47.937,60.297-47.937
						s44.248,17.024,60.297,47.937c15.941,30.705,24.721,71.506,24.721,114.889c0,43.383-8.779,84.185-24.721,114.889
						C1964.361,698.38,1942.947,715.404,1920.113,715.404z M1920.113,391.751c-45.776,0-83.018,72.147-83.018,160.826
						c0,88.68,37.241,160.827,83.018,160.827s83.018-72.146,83.018-160.827C2003.131,463.898,1965.89,391.751,1920.113,391.751z"/>
					<path style="fill:#D3BBA3;" d="M1920.113,715.189c-0.553,0-1-0.448-1-1V391.096c0-0.552,0.447-1,1-1s1,0.448,1,1v323.093
						C1921.113,714.741,1920.666,715.189,1920.113,715.189z"/>
					<path style="fill:#D3BBA3;" d="M2081.975,553.856c-0.003,0-0.005,0-0.008,0l-323.784-2.524
						c-0.553-0.004-0.996-0.456-0.992-1.008c0.005-0.552,0.478-0.977,1.008-0.992l323.784,2.524
						c0.552,0.004,0.996,0.456,0.992,1.008C2082.971,553.414,2082.523,553.856,2081.975,553.856z"/>
				</g>
			</g>
		</g>
		<path style="fill:#D87355;" d="M528.522,1411.748c-55.618,0-100.705,45.087-100.705,100.705s100.705,178.353,100.705,178.353
			s100.706-122.735,100.706-178.353S584.14,1411.748,528.522,1411.748z M528.522,1581.359c-38.056,0-68.906-30.851-68.906-68.907
			s30.85-68.907,68.906-68.907c38.057,0,68.907,30.851,68.907,68.907S566.579,1581.359,528.522,1581.359z"/>
		<g>
			<g>
				<polygon style="fill:#363E44;" points="1399.835,2153.444 1475.187,1865.977 1857.294,1881.11 1874.259,2153.444 
					1654.314,2153.444 1650.531,2081.622 1597.245,2153.444 				"/>
				<path style="fill:#E6D0BE;" d="M1650.53,2082.622c-0.187,0-0.374-0.052-0.542-0.161c-0.464-0.3-0.597-0.919-0.297-1.383
					l35.507-54.857c0.3-0.463,0.919-0.597,1.383-0.296c0.464,0.3,0.597,0.919,0.297,1.383l-35.507,54.857
					C1651.18,2082.461,1650.858,2082.622,1650.53,2082.622z"/>
			</g>
			<g>
				<path style="fill:#363E44;" d="M1593.667,1276.59c-2.034,0-3.992-0.415-5.813-1.251c-9.448-4.339-12.071-18.892-5.85-32.44
					c2.986-6.502,7.544-11.825,12.833-14.989c5.408-3.236,10.947-3.843,15.586-1.711c4.643,2.132,7.789,6.727,8.858,12.939
					c1.046,6.073-0.023,12.999-3.009,19.501c-2.986,6.502-7.544,11.825-12.833,14.989
					C1600.153,1275.594,1596.818,1276.59,1593.667,1276.59z M1582.913,1243.316l0.909,0.417c-5.763,12.546-3.58,25.909,4.865,29.788
					c4.026,1.849,8.899,1.277,13.726-1.61c4.945-2.958,9.222-7.969,12.041-14.108c2.82-6.138,3.834-12.647,2.856-18.326
					c-0.955-5.542-3.697-9.612-7.722-11.461c-4.026-1.848-8.898-1.277-13.726,1.61c-4.945,2.959-9.222,7.969-12.041,14.108
					L1582.913,1243.316z"/>
				<path style="fill:#9E6C5A;" d="M1606.477,1249.032c16.914-36.915,30.027-56.942,53.285-65.461
					c31.257-11.449,61.931,8.611,65.102,10.754c2.024,1.368,31.974,19.08,34.165,54.025c2.164,34.51-14.024,68.96-43.036,87.191
					l-6.647,76.099c-2.134,24.431-23.668,42.506-48.099,40.372l-5.534-0.483c-24.431-2.134-42.506-23.669-40.372-48.099l4.44-50.835
					c-15.385-2.651-27.254-8.213-31.482-16.492C1580.724,1321.272,1586.558,1292.503,1606.477,1249.032z"/>
				<path style="fill:#363E44;" d="M1653.307,1267.951c-0.098,0-0.196-0.015-0.295-0.045l-70.294-21.697
					c-0.527-0.163-0.823-0.723-0.66-1.25c0.161-0.528,0.718-0.824,1.25-0.661l70.294,21.697c0.527,0.163,0.823,0.723,0.66,1.25
					C1654.13,1267.675,1653.734,1267.951,1653.307,1267.951z"/>
				<path style="fill:#363E44;" d="M1619.189,1352.329c-0.038,0-0.076-0.002-0.114-0.006c-0.549-0.063-0.943-0.559-0.88-1.107
					l2.12-18.567c0.062-0.549,0.57-0.942,1.106-0.88c0.549,0.063,0.943,0.559,0.88,1.107l-2.12,18.567
					C1620.124,1351.952,1619.691,1352.329,1619.189,1352.329z"/>
				<path style="fill:#363E44;" d="M1654.619,1296.365c-0.271,0-0.54-0.109-0.736-0.324c-0.374-0.407-0.347-1.04,0.061-1.413
					c4.588-4.211,7.44-6.946,9.522-8.943c1.027-0.986,1.873-1.797,2.653-2.523c0.405-0.376,1.037-0.354,1.414,0.051
					c0.376,0.404,0.354,1.037-0.051,1.413c-0.774,0.72-1.613,1.525-2.633,2.502c-2.089,2.004-4.949,4.748-9.555,8.974
					C1655.104,1296.278,1654.861,1296.365,1654.619,1296.365z"/>
				<path style="fill:#363E44;" d="M1649.977,1179.66c28.005-23.17,92.212-2.807,114.618,32.912
					c30.3,48.302,7.321,115.476-34.065,135.428c-13.884,6.693-36.768,14.379-59.206,1.467c-13.102-7.54-8.645-27.411-7.478-32.184
					c12.947-1.212,23.063-11.474,23.984-23.793c0.929-12.408-7.712-23.682-18.594-26.516c-7.218-1.88-13.503,0.452-16.07,1.583
					C1634.8,1230.832,1630.022,1196.17,1649.977,1179.66z"/>
			</g>
			<g>
				<g>
					<path style="fill:#9E6C5A;" d="M1874.434,1585.431c72.221-27.411,285.494-93.762,256.651-182.993
						c-23.857-73.808-228.707-0.028-302.189,22.542C1844.076,1478.464,1859.255,1531.947,1874.434,1585.431z"/>
					<g>
						<path style="fill:#9E6C5A;" d="M2029.209,1478.18c-0.003-0.001-0.008,0-0.01-0.004
							c-64.744-124.479-113.065-211.553-126.927-239.02c-1.452-2.876-4.037-7.941-5.487-15.19
							c-5.374-26.856,13.443-40.64,20.678-71.457c8.209-34.967-6.965-59.304,1.214-63.454c5.69-2.887,13.999,4.682,23.944,25.035
							c0.001,0.002,0.004,0.001,0.004-0.001c-5.779-16.332-12.649-38.823-3.614-41.991c10.628-3.099,21.803,22.378,27.81,38.12
							c-7.271-19.055-5.436-31.362,0.041-31.873c8.622-0.803,17.701,12.66,26.334,38.216c0,0,0.002,0.001,0.002,0
							c-1.031-19.311,1.597-24.15,6.549-23.421c9.041,1.331,15.743,22.476,18.801,42.076c3.444,22.065-1.54,40.373-4.958,51.842
							c-0.001,0.003,0,0.007,0.002,0.009c54.384,82.481,68.641,101.817,111.108,169.389
							C2172.949,1433.229,2098.803,1511.014,2029.209,1478.18z"/>
						<path style="fill:#9E6C5A;" d="M1917.42,1182.323c-18.381-30.417-31.457-37.492-36.184-34.425
							c-7.95,5.157-2.887,37.549,18.378,85.386C1905.847,1219.531,1911.186,1196.076,1917.42,1182.323z"/>
						<g>
							<path style="fill:#363E44;" d="M1943.153,1147.427c-0.063,0-0.126-0.006-0.19-0.018c-0.542-0.104-0.897-0.629-0.792-1.171
								c0.807-4.186,1.228-8.464,1.251-12.717c0.034-6.168-0.763-12.335-2.367-18.331c-0.143-0.533,0.174-1.082,0.707-1.225
								c0.533-0.142,1.083,0.174,1.225,0.708c1.651,6.168,2.471,12.513,2.436,18.859c-0.024,4.376-0.458,8.778-1.288,13.084
								C1944.042,1147.094,1943.623,1147.427,1943.153,1147.427z"/>
							<path style="fill:#363E44;" d="M1966.319,1141.121c-0.063,0-0.126-0.006-0.19-0.018c-0.542-0.104-0.897-0.629-0.792-1.171
								c0.808-4.19,1.229-8.469,1.251-12.717c0.034-6.171-0.763-12.338-2.366-18.331c-0.143-0.533,0.174-1.082,0.707-1.225
								c0.533-0.142,1.083,0.174,1.225,0.708c1.65,6.165,2.47,12.51,2.435,18.859c-0.023,4.371-0.457,8.773-1.288,13.084
								C1967.208,1140.789,1966.789,1141.121,1966.319,1141.121z"/>
							<path style="fill:#363E44;" d="M1994.273,1149.59c-0.063,0-0.126-0.006-0.19-0.018c-0.542-0.104-0.897-0.629-0.792-1.171
								c0.807-4.185,1.228-8.464,1.251-12.717c0.034-6.166-0.763-12.333-2.366-18.331c-0.143-0.533,0.174-1.082,0.707-1.224
								c0.534-0.142,1.083,0.174,1.225,0.708c1.65,6.169,2.47,12.514,2.435,18.858c-0.024,4.376-0.458,8.778-1.288,13.084
								C1995.162,1149.258,1994.743,1149.59,1994.273,1149.59z"/>
						</g>
					</g>
				</g>
				<g>
					<g>
						<path style="fill:#9E6C5A;" d="M1385.18,1467.671c-158.198,33.643-282.431,67.732-268.864,118.489
							c28.718,107.441,148.064,52.219,254.143,51.275C1374.451,1593.867,1381.481,1520.491,1385.18,1467.671z"/>
					</g>
					<g>
						<path style="fill:#9E6C5A;" d="M1251.746,1568.172c0,0,39.945-107.443,57.1-165.891
							c18.017-61.382,35.681-154.631,22.604-156.935c-7.448-1.312-12.486,10.908-23.782,44.464
							c-1.125-2.268-5.637-8.194-12.744-8.277c-10.519-0.124-13.549,8.248-14.116,8.89c-0.32-0.8-3.998-9.321-11.025-10.596
							c-7.915-1.436-13.859,2.22-17.35,7.481c-0.854-1.96-4.739-8.871-11.529-9.897c-6.984-1.056-15.042,2.912-17.013,10.014
							c-3.616,13.029-13.62,51.954-20.797,70.304c-14.124,36.11-81.491,157.612-88.109,215.197
							C1163.914,1561.833,1251.746,1568.172,1251.746,1568.172z"/>
						<g>
							<path style="fill:#363E44;" d="M1238.293,1306.265c-0.048,0-0.096-0.003-0.145-0.01l-11.31-1.644
								c-0.547-0.08-0.926-0.587-0.846-1.134c0.079-0.546,0.578-0.923,1.133-0.846l11.31,1.644c0.547,0.08,0.926,0.587,0.846,1.134
								C1239.209,1305.906,1238.782,1306.265,1238.293,1306.265z"/>
							<path style="fill:#363E44;" d="M1267.029,1310.54c-0.037,0-0.075-0.002-0.113-0.006l-12.84-1.454
								c-0.549-0.062-0.943-0.557-0.882-1.106c0.063-0.548,0.547-0.947,1.106-0.881l12.84,1.454
								c0.549,0.062,0.943,0.557,0.882,1.106C1267.964,1310.163,1267.531,1310.54,1267.029,1310.54z"/>
							<path style="fill:#363E44;" d="M1294.93,1313.489c-0.048,0-0.097-0.003-0.146-0.011c-2.109-0.309-4.015-0.572-5.92-0.836
								c-1.906-0.264-3.813-0.528-5.924-0.837c-0.547-0.08-0.925-0.587-0.845-1.134c0.079-0.546,0.584-0.928,1.134-0.844
								c2.105,0.308,4.008,0.571,5.909,0.834c1.91,0.265,3.82,0.529,5.935,0.839c0.547,0.08,0.925,0.588,0.845,1.134
								C1295.846,1313.131,1295.418,1313.489,1294.93,1313.489z"/>
							<path style="fill:#363E44;" d="M1317.694,1318.804c-0.071,0-0.145-0.007-0.218-0.024l-11.078-2.457
								c-0.539-0.119-0.879-0.653-0.76-1.192c0.119-0.539,0.648-0.883,1.193-0.76l11.078,2.457c0.539,0.119,0.879,0.653,0.76,1.192
								C1318.566,1318.486,1318.153,1318.804,1317.694,1318.804z"/>
						</g>
					</g>
				</g>
				<g>
					<path style="fill:#8B865C;" d="M1871.417,1629.524l104.177-38.286l-41.733-201.955c0,0-325.379-21.137-581.861,78.666
						l5.341,196.145l84.338,7.045l-56.676,251.945c205.9,26.264,373.087,23.221,513.621,0L1871.417,1629.524z"/>
					<path style="fill:#363E44;" d="M1863.849,1621.066c-0.484,0-0.91-0.353-0.987-0.846l-10.344-66.384
						c-0.085-0.545,0.289-1.057,0.834-1.142c0.561-0.081,1.057,0.289,1.143,0.834l10.344,66.384
						c0.085,0.545-0.289,1.057-0.834,1.142C1863.951,1621.063,1863.899,1621.066,1863.849,1621.066z"/>
				</g>
			</g>
		</g>
		<g>
			<g>
				<circle style="fill:#FFFFFF;" cx="1815.697" cy="938.595" r="129.872"/>
			</g>
			<path style="fill:#D87355;" d="M1877.49,878.415c-7.223-16.56-19.107-23.749-23.889-26.327c-3.88-2.092-7.969-3.289-12.083-3.684
				l-27.829,51.614c2.59,3.22,5.838,5.978,9.718,8.07c8.282,4.466,17.655,4.841,25.863,1.879
				c-1.745,8.042-5.62,18.919-13.419,33.384c-8.791,16.304-16.365,26.943-22.524,33.903c-1.952-8.657-7.466-16.461-15.889-21.002
				c-3.88-2.092-7.969-3.289-12.083-3.684l-27.829,51.614c2.59,3.22,5.838,5.978,9.718,8.07c2.15,1.159,15.651,11.864,30.333,9.171
				c21.906-4.019,43.684-22.495,65.682-63.294C1881.325,924.622,1885.973,897.864,1877.49,878.415z"/>
		</g>
	</g>
</g>
</svg>
